<svg width="270" height="89" viewBox="0 0 270 89" fill="none" xmlns="http://www.w3.org/2000/svg">
<g clip-path="url(#clip0_9_11)">
<path d="M63.9237 38.0312H55.2134C55.0543 36.9044 54.7295 35.9034 54.239 35.0284C53.7485 34.1401 53.1187 33.3845 52.3498 32.7614C51.5808 32.1383 50.6926 31.661 49.685 31.3295C48.6907 30.9981 47.6102 30.8324 46.4435 30.8324C44.3356 30.8324 42.4994 31.3561 40.935 32.4034C39.3706 33.4375 38.1576 34.9489 37.2958 36.9375C36.4341 38.9129 36.0032 41.3125 36.0032 44.1364C36.0032 47.0398 36.4341 49.4792 37.2958 51.4545C38.1708 53.4299 39.3905 54.9214 40.9549 55.929C42.5193 56.9366 44.329 57.4403 46.3839 57.4403C47.5373 57.4403 48.6045 57.2879 49.5856 56.983C50.5799 56.678 51.4615 56.2339 52.2305 55.6506C52.9994 55.054 53.6358 54.3314 54.1396 53.483C54.6566 52.6345 55.0146 51.6667 55.2134 50.5795L63.9237 50.6193C63.6983 52.4886 63.1348 54.2917 62.2333 56.0284C61.3451 57.7519 60.1452 59.2964 58.6339 60.6619C57.1358 62.0142 55.346 63.0881 53.2646 63.8835C51.1964 64.6657 48.8564 65.0568 46.2447 65.0568C42.6121 65.0568 39.364 64.2348 36.5004 62.5909C33.65 60.947 31.3962 58.5672 29.739 55.4517C28.0951 52.3362 27.2731 48.5644 27.2731 44.1364C27.2731 39.6951 28.1083 35.9167 29.7788 32.8011C31.4492 29.6856 33.7163 27.3125 36.5799 25.6818C39.4435 24.0379 42.6651 23.2159 46.2447 23.2159C48.6045 23.2159 50.792 23.5473 52.8072 24.2102C54.8356 24.8731 56.632 25.8409 58.1964 27.1136C59.7608 28.3731 61.0335 29.9176 62.0146 31.7472C63.0089 33.5767 63.6452 35.6714 63.9237 38.0312ZM69.9393 64.5V33.9545H78.4109V64.5H69.9393ZM74.195 30.017C72.9355 30.017 71.855 29.5994 70.9535 28.7642C70.0652 27.9157 69.6211 26.9015 69.6211 25.7216C69.6211 24.5549 70.0652 23.554 70.9535 22.7188C71.855 21.8703 72.9355 21.446 74.195 21.446C75.4544 21.446 76.5283 21.8703 77.4165 22.7188C78.3181 23.554 78.7688 24.5549 78.7688 25.7216C78.7688 26.9015 78.3181 27.9157 77.4165 28.7642C76.5283 29.5994 75.4544 30.017 74.195 30.017ZM93.6687 46.8409V64.5H85.1971V33.9545H93.271V39.3438H93.6289C94.305 37.5672 95.4386 36.1619 97.0295 35.1278C98.6204 34.0805 100.549 33.5568 102.816 33.5568C104.938 33.5568 106.787 34.0208 108.365 34.9489C109.942 35.8769 111.169 37.2027 112.044 38.9261C112.919 40.6364 113.356 42.678 113.356 45.0511V64.5H104.885V46.5625C104.898 44.6932 104.421 43.2348 103.453 42.1875C102.485 41.1269 101.153 40.5966 99.4556 40.5966C98.3155 40.5966 97.3079 40.8419 96.4329 41.3324C95.5711 41.8229 94.895 42.5388 94.4045 43.4801C93.9272 44.4081 93.6819 45.5284 93.6687 46.8409ZM133.953 65.0966C130.811 65.0966 128.107 64.4602 125.84 63.1875C123.586 61.9015 121.849 60.0852 120.63 57.7386C119.41 55.3788 118.8 52.5881 118.8 49.3665C118.8 46.2244 119.41 43.4669 120.63 41.0938C121.849 38.7206 123.566 36.8712 125.78 35.5455C128.007 34.2197 130.619 33.5568 133.615 33.5568C135.631 33.5568 137.507 33.8816 139.243 34.5312C140.993 35.1676 142.518 36.1288 143.817 37.4148C145.13 38.7008 146.15 40.3182 146.88 42.267C147.609 44.2027 147.973 46.4697 147.973 49.0682V51.3949H122.181V46.1449H139.999C139.999 44.9252 139.734 43.8447 139.203 42.9034C138.673 41.9621 137.937 41.2263 136.996 40.696C136.068 40.1525 134.988 39.8807 133.755 39.8807C132.469 39.8807 131.328 40.179 130.334 40.7756C129.353 41.3589 128.584 42.1477 128.027 43.142C127.471 44.1231 127.185 45.2169 127.172 46.4233V51.4148C127.172 52.9261 127.451 54.232 128.007 55.3324C128.578 56.4328 129.38 57.2812 130.414 57.8778C131.448 58.4744 132.674 58.7727 134.093 58.7727C135.034 58.7727 135.896 58.6402 136.678 58.375C137.46 58.1098 138.13 57.7121 138.686 57.1818C139.243 56.6515 139.667 56.0019 139.959 55.233L147.794 55.75C147.397 57.6326 146.581 59.2765 145.348 60.6818C144.129 62.0739 142.551 63.161 140.615 63.9432C138.693 64.7121 136.472 65.0966 133.953 65.0966ZM130.374 30.017L134.59 20.9688H142.425L136.36 30.017H130.374ZM153.661 64.5V23.7727H180.627V30.8722H162.272V40.5767H178.837V47.6761H162.272V64.5H153.661ZM194.731 23.7727V64.5H186.26V23.7727H194.731ZM201.517 64.5V33.9545H209.989V64.5H201.517ZM205.773 30.017C204.514 30.017 203.433 29.5994 202.532 28.7642C201.643 27.9157 201.199 26.9015 201.199 25.7216C201.199 24.5549 201.643 23.554 202.532 22.7188C203.433 21.8703 204.514 21.446 205.773 21.446C207.033 21.446 208.106 21.8703 208.995 22.7188C209.896 23.554 210.347 24.5549 210.347 25.7216C210.347 26.9015 209.896 27.9157 208.995 28.7642C208.106 29.5994 207.033 30.017 205.773 30.017ZM223.855 33.9545L229.463 44.6335L235.21 33.9545H243.9L235.051 49.2273L244.139 64.5H235.488L229.463 53.9403L223.537 64.5H214.787L223.855 49.2273L215.105 33.9545H223.855Z" fill="#DD0000"/>
</g>
<rect x="6.5" y="7" width="257" height="75" rx="17.5" stroke="#D60000" stroke-width="13"/>
<defs>
<clipPath id="clip0_9_11">
<rect x="13" y="13.5" width="244" height="62" rx="11" fill="white"/>
</clipPath>
</defs>
</svg>
