<svg width="218" height="46" viewBox="0 0 218 46" fill="none" xmlns="http://www.w3.org/2000/svg">
<path d="M36.9237 18.0312H28.2134C28.0543 16.9044 27.7295 15.9034 27.239 15.0284C26.7485 14.1401 26.1187 13.3845 25.3498 12.7614C24.5808 12.1383 23.6926 11.661 22.685 11.3295C21.6907 10.9981 20.6102 10.8324 19.4435 10.8324C17.3356 10.8324 15.4994 11.3561 13.935 12.4034C12.3706 13.4375 11.1576 14.9489 10.2958 16.9375C9.43407 18.9129 9.0032 21.3125 9.0032 24.1364C9.0032 27.0398 9.43407 29.4792 10.2958 31.4545C11.1708 33.4299 12.3905 34.9214 13.9549 35.929C15.5193 36.9366 17.329 37.4403 19.3839 37.4403C20.5373 37.4403 21.6045 37.2879 22.5856 36.983C23.5799 36.678 24.4615 36.2339 25.2305 35.6506C25.9994 35.054 26.6358 34.3314 27.1396 33.483C27.6566 32.6345 28.0146 31.6667 28.2134 30.5795L36.9237 30.6193C36.6983 32.4886 36.1348 34.2917 35.2333 36.0284C34.3451 37.7519 33.1452 39.2964 31.6339 40.6619C30.1358 42.0142 28.346 43.0881 26.2646 43.8835C24.1964 44.6657 21.8564 45.0568 19.2447 45.0568C15.6121 45.0568 12.364 44.2348 9.50036 42.5909C6.64998 40.947 4.39619 38.5672 2.73899 35.4517C1.09505 32.3362 0.273082 28.5644 0.273082 24.1364C0.273082 19.6951 1.10831 15.9167 2.77876 12.8011C4.44922 9.68561 6.71626 7.3125 9.5799 5.68182C12.4435 4.03788 15.6651 3.21591 19.2447 3.21591C21.6045 3.21591 23.792 3.54735 25.8072 4.21023C27.8356 4.87311 29.632 5.84091 31.1964 7.11363C32.7608 8.3731 34.0335 9.91761 35.0146 11.7472C36.0089 13.5767 36.6452 15.6714 36.9237 18.0312ZM42.9393 44.5V13.9545H51.4109V44.5H42.9393ZM47.195 10.017C45.9355 10.017 44.855 9.59943 43.9535 8.7642C43.0652 7.91572 42.6211 6.90151 42.6211 5.72159C42.6211 4.55492 43.0652 3.55398 43.9535 2.71875C44.855 1.87026 45.9355 1.44602 47.195 1.44602C48.4544 1.44602 49.5283 1.87026 50.4165 2.71875C51.3181 3.55398 51.7688 4.55492 51.7688 5.72159C51.7688 6.90151 51.3181 7.91572 50.4165 8.7642C49.5283 9.59943 48.4544 10.017 47.195 10.017ZM66.6687 26.8409V44.5H58.1971V13.9545H66.271V19.3438H66.6289C67.305 17.5672 68.4386 16.1619 70.0295 15.1278C71.6204 14.0805 73.5494 13.5568 75.8164 13.5568C77.9376 13.5568 79.7871 14.0208 81.3647 14.9489C82.9424 15.8769 84.1687 17.2027 85.0437 18.9261C85.9187 20.6364 86.3562 22.678 86.3562 25.0511V44.5H77.8846V26.5625C77.8978 24.6932 77.4206 23.2348 76.4528 22.1875C75.485 21.1269 74.1526 20.5966 72.4556 20.5966C71.3155 20.5966 70.3079 20.8419 69.4329 21.3324C68.5711 21.8229 67.895 22.5388 67.4045 23.4801C66.9272 24.4081 66.6819 25.5284 66.6687 26.8409ZM106.953 45.0966C103.811 45.0966 101.107 44.4602 98.8398 43.1875C96.5861 41.9015 94.8493 40.0852 93.6296 37.7386C92.4099 35.3788 91.8001 32.5881 91.8001 29.3665C91.8001 26.2244 92.4099 23.4669 93.6296 21.0938C94.8493 18.7206 96.5662 16.8712 98.7802 15.5455C101.007 14.2197 103.619 13.5568 106.615 13.5568C108.631 13.5568 110.507 13.8816 112.243 14.5312C113.993 15.1676 115.518 16.1288 116.817 17.4148C118.13 18.7008 119.15 20.3182 119.88 22.267C120.609 24.2027 120.973 26.4697 120.973 29.0682V31.3949H95.1808V26.1449H112.999C112.999 24.9252 112.734 23.8447 112.203 22.9034C111.673 21.9621 110.937 21.2263 109.996 20.696C109.068 20.1525 107.988 19.8807 106.755 19.8807C105.469 19.8807 104.328 20.179 103.334 20.7756C102.353 21.3589 101.584 22.1477 101.027 23.142C100.471 24.1231 100.185 25.2169 100.172 26.4233V31.4148C100.172 32.9261 100.451 34.232 101.007 35.3324C101.578 36.4328 102.38 37.2812 103.414 37.8778C104.448 38.4744 105.674 38.7727 107.093 38.7727C108.034 38.7727 108.896 38.6402 109.678 38.375C110.46 38.1098 111.13 37.7121 111.686 37.1818C112.243 36.6515 112.667 36.0019 112.959 35.233L120.794 35.75C120.397 37.6326 119.581 39.2765 118.348 40.6818C117.129 42.0739 115.551 43.161 113.615 43.9432C111.693 44.7121 109.472 45.0966 106.953 45.0966ZM103.374 10.017L107.59 0.96875H115.425L109.36 10.017H103.374ZM126.661 44.5V3.77273H153.627V10.8722H135.272V20.5767H151.837V27.6761H135.272V44.5H126.661ZM167.731 3.77273V44.5H159.26V3.77273H167.731ZM174.517 44.5V13.9545H182.989V44.5H174.517ZM178.773 10.017C177.514 10.017 176.433 9.59943 175.532 8.7642C174.643 7.91572 174.199 6.90151 174.199 5.72159C174.199 4.55492 174.643 3.55398 175.532 2.71875C176.433 1.87026 177.514 1.44602 178.773 1.44602C180.033 1.44602 181.106 1.87026 181.995 2.71875C182.896 3.55398 183.347 4.55492 183.347 5.72159C183.347 6.90151 182.896 7.91572 181.995 8.7642C181.106 9.59943 180.033 10.017 178.773 10.017ZM196.855 13.9545L202.463 24.6335L208.21 13.9545H216.9L208.051 29.2273L217.139 44.5H208.488L202.463 33.9403L196.537 44.5H187.787L196.855 29.2273L188.105 13.9545H196.855Z" fill="#DD0000"/>
</svg>
